<?xml version="1.0" encoding="UTF-8"?>
<svg width="239px" height="203px" viewBox="0 0 239 203" version="1.1" xmlns="http://www.w3.org/2000/svg" xmlns:xlink="http://www.w3.org/1999/xlink">
    <!-- Generator: Sketch 51.1 (57501) - http://www.bohemiancoding.com/sketch -->
    <title>Artwork</title>
    <desc>Created with Sketch.</desc>
    <defs></defs>
    <g id="App" stroke="none" stroke-width="1" fill="none" fill-rule="evenodd">
        <g id="0-0-01-Splash-step-1" transform="translate(-255.000000, -180.000000)" fill="#FFFFFF">
            <g id="Artwork" transform="translate(255.000000, 180.000000)">
                <g id="Logo">
                    <path d="M190.909091,42.5645161 L208.363636,51.2956989 L205.090909,62.2096774 L190.909091,54.5698925 L190.909091,42.5645161 Z M180.574219,24.3507487 L169.704806,17.7213633 L169.704806,3.83993837 L180.574219,3.83993837 L180.574219,24.3507487 Z M190.909091,37.1075269 L190.909091,30.5591398 L185.454545,27.2849462 L201.818182,16.3709677 L208.363636,26.1935484 L190.909091,37.1075269 Z M93.8181818,78.5806452 L93.8181818,122.236559 L51.2727273,122.236559 L51.2727273,36.016129 L115.636364,0 L175.636364,32.7419355 L163.636364,40.3817204 L115.636364,13.0967742 L64.3636364,41.4731183 L64.3636364,111.322581 L80.7272727,111.322581 L80.7272727,55.6612903 L115.636364,78.5806452 L151.636364,55.6612903 L151.636364,111.322581 L169.090909,111.322581 L169.090909,50.2043011 L181.090909,41.4731183 L181.090909,122.236559 L139.636364,122.236559 L139.636364,78.5806452 L115.636364,92.7688172 L93.8181818,78.5806452 Z" id="Combined-Shape"></path>
                    <path d="M239.038774,159.628677 L232.067569,166.599882 C229.069201,162.842735 224.45196,160.435484 219.272727,160.435484 C210.23534,160.435484 202.909091,167.765016 202.909091,176.806452 C202.909091,185.847887 210.23534,193.177419 219.272727,193.177419 C224.449134,193.177419 229.064162,190.772795 232.062659,187.019171 L239.033631,193.990142 C234.233543,199.510394 227.160473,203 219.272727,203 C204.812908,203 193.090909,191.272749 193.090909,176.806452 C193.090909,162.340154 204.812908,150.612903 219.272727,150.612903 C227.163291,150.612903 234.238596,154.105002 239.038774,159.628677 Z M12,169.166667 L12,201.908602 L0,201.908602 L0,149.521505 L28.3636364,164.801075 L55.6363636,149.521505 L55.6363636,201.908602 L44.7272727,201.908602 L44.7272727,169.166667 L28.3636364,178.989247 L12,169.166667 Z M77.4545455,203 L64.3636364,203 L87.2727273,150.612903 L99.2727273,150.612903 L122.181818,203 L109.090909,203 L104.727273,193.177419 L81.8181818,193.177419 L77.4545455,203 Z M86.1818182,181.172043 L99.2727273,181.172043 L92.7272727,165.892473 L86.1818182,181.172043 Z M133.090909,161.526882 L117.818182,161.526882 L117.818182,150.612903 L161.454545,150.612903 L161.454545,161.526882 L145.090909,161.526882 L145.090909,203 L133.090909,203 L133.090909,161.526882 Z M171.272727,150.612903 L183.272727,150.612903 L183.272727,203 L171.272727,203 L171.272727,150.612903 Z" id="Combined-Shape"></path>
                </g>
            </g>
        </g>
    </g>
</svg>